<?xml version="1.0" standalone="no"?>
<!DOCTYPE svg PUBLIC "-//W3C//DTD SVG 20010904//EN"
 "http://www.w3.org/TR/2001/REC-SVG-20010904/DTD/svg10.dtd">
<svg version="1.0" xmlns="http://www.w3.org/2000/svg"
 width="329.000000pt" height="329.000000pt" viewBox="0 0 329.000000 329.000000"
 preserveAspectRatio="xMidYMid meet">
<metadata>
Created by potrace 1.11, written by Peter Selinger 2001-2013
</metadata>
<g transform="translate(0.000000,329.000000) scale(0.100000,-0.100000)"
fill="#000000" stroke="none">
<path d="M894 2411 c-417 -418 -760 -763 -761 -768 -2 -4 341 -352 761 -772
l765 -764 767 767 767 768 -764 764 c-420 420 -767 764 -770 764 -3 0 -347
-342 -765 -759z m1514 -24 l743 -744 -746 -746 -747 -745 -745 745 -745 746
743 743 c409 409 746 744 749 744 3 0 339 -335 748 -743z"/>
<path d="M1369 2441 c0 -13 0 -513 1 -584 0 -16 9 -17 93 -15 l92 3 -1 133
c-1 72 2 132 7 132 4 0 44 -44 87 -97 44 -54 95 -115 113 -136 l34 -38 109 3
109 3 -118 145 c-65 80 -124 152 -132 161 -12 14 0 33 97 155 60 76 110 142
110 146 0 4 -43 6 -95 6 l-96 0 -50 -61 c-28 -34 -70 -84 -92 -111 -23 -27
-46 -57 -51 -67 -5 -10 -14 -20 -21 -22 -9 -4 -12 24 -11 111 1 65 0 125 -2
134 -4 15 -16 18 -93 16 -74 -1 -89 -4 -90 -17z"/>
<path d="M1299 1396 c0 -6 -1 -144 -1 -306 l-1 -295 92 -3 91 -3 0 178 c1 157
2 176 15 159 8 -11 25 -31 37 -45 13 -14 43 -52 68 -83 25 -32 47 -58 50 -58
12 1 29 20 100 110 l75 94 3 -177 2 -178 93 3 92 3 0 305 0 305 -85 2 -85 1
-85 -105 c-47 -57 -90 -109 -96 -114 -8 -6 -38 23 -94 93 -46 57 -90 108 -98
115 -19 15 -172 15 -173 -1z"/>
</g>
</svg>
